# xmcd CD database file
# Copyright (C) 1993-1998 Ti Kan
# 
# Track frame offsets:
#     202
#     14241
#     31457
#     45752
#     63000
#     74868
#     89590
#     100065
#     117011
#     130805
#     146317
# 
# Disc length: 2190 seconds
# 
# Revision: 1
# Processed by: cddbd v1.4b41PL1 Copyright (c) Steve Scherf et al.
# Submitted via: DiscPlay 4.0.3
# 
DISCID=94088c0b
DTITLE=Winston Slade - Focus
DYEAR=1900
DGENRE=
TTITLE0=The English language
TTITLE1=Voodoo
TTITLE2=When I'm Gone
TTITLE3=Everytime You Go Outside I Hope It Rains
TTITLE4=Steppin' Stone
TTITLE5=Focus
TTITLE6=Be-Bop-A-Lule
TTITLE7=Break It Easy
TTITLE8=Kissing Coach
TTITLE9=Your Memory Always Finds me
TTITLE10=Walk A Mile In My Shoes
EXTD=
EXTT0=
EXTT1=
EXTT2=
EXTT3=
EXTT4=
EXTT5=\n
EXTT6=
EXTT7=
EXTT8=
EXTT9=
EXTT10=
PLAYORDER=
